<svg xmlns="http://www.w3.org/2000/svg" viewBox="0 0 800 400" width="800" height="400">
  <rect width="800" height="400" fill="white" rx="8"/>
  <text x="400.0" y="25" text-anchor="middle" font-size="16" font-weight="bold" fill="#333">Singapore Temperature (WSSS) - 2026-04-05</text>
  <line x1="60" y1="340.0" x2="770" y2="340.0" stroke="#e0e0e0" stroke-width="1"/><line x1="60" y1="290.0" x2="770" y2="290.0" stroke="#e0e0e0" stroke-width="1"/><line x1="60" y1="240.0" x2="770" y2="240.0" stroke="#e0e0e0" stroke-width="1"/><line x1="60" y1="190.0" x2="770" y2="190.0" stroke="#e0e0e0" stroke-width="1"/><line x1="60" y1="140.0" x2="770" y2="140.0" stroke="#e0e0e0" stroke-width="1"/><line x1="60" y1="90.0" x2="770" y2="90.0" stroke="#e0e0e0" stroke-width="1"/><line x1="60" y1="40.0" x2="770" y2="40.0" stroke="#e0e0e0" stroke-width="1"/>
  <text x="50" y="340.0" text-anchor="end" dominant-baseline="middle" fill="#666" font-size="12">29°C</text><text x="50" y="290.0" text-anchor="end" dominant-baseline="middle" fill="#666" font-size="12">30°C</text><text x="50" y="240.0" text-anchor="end" dominant-baseline="middle" fill="#666" font-size="12">31°C</text><text x="50" y="190.0" text-anchor="end" dominant-baseline="middle" fill="#666" font-size="12">32°C</text><text x="50" y="140.0" text-anchor="end" dominant-baseline="middle" fill="#666" font-size="12">33°C</text><text x="50" y="90.0" text-anchor="end" dominant-baseline="middle" fill="#666" font-size="12">34°C</text><text x="50" y="40.0" text-anchor="end" dominant-baseline="middle" fill="#666" font-size="12">35°C</text>
  <text x="60.0" y="360" text-anchor="middle" fill="#666" font-size="11">10:58</text><text x="110.7" y="360" text-anchor="middle" fill="#666" font-size="11">12:04</text><text x="161.4" y="360" text-anchor="middle" fill="#666" font-size="11">12:59</text><text x="212.1" y="360" text-anchor="middle" fill="#666" font-size="11">13:39</text><text x="262.9" y="360" text-anchor="middle" fill="#666" font-size="11">14:07</text><text x="313.6" y="360" text-anchor="middle" fill="#666" font-size="11">14:38</text><text x="364.3" y="360" text-anchor="middle" fill="#666" font-size="11">15:04</text><text x="415.0" y="360" text-anchor="middle" fill="#666" font-size="11">15:33</text><text x="465.7" y="360" text-anchor="middle" fill="#666" font-size="11">15:56</text><text x="516.4" y="360" text-anchor="middle" fill="#666" font-size="11">16:11</text><text x="567.1" y="360" text-anchor="middle" fill="#666" font-size="11">16:27</text><text x="617.9" y="360" text-anchor="middle" fill="#666" font-size="11">16:46</text><text x="668.6" y="360" text-anchor="middle" fill="#666" font-size="11">17:03</text><text x="719.3" y="360" text-anchor="middle" fill="#666" font-size="11">17:23</text><text x="770.0" y="360" text-anchor="middle" fill="#666" font-size="11">17:40</text>
  <line x1="60" y1="40" x2="60" y2="340" stroke="#ccc" stroke-width="1"/>
  <line x1="60" y1="340" x2="770" y2="340" stroke="#ccc" stroke-width="1"/>
  <polyline points="60.0,240.0 110.7,190.0 161.4,190.0 212.1,140.0 262.9,190.0 313.6,140.0 364.3,140.0 415.0,190.0 465.7,190.0 516.4,240.0 567.1,240.0 617.9,240.0 668.6,240.0 719.3,240.0 770.0,240.0" fill="none" stroke="#e74c3c" stroke-width="2"/>
  <circle cx="212.1" cy="140.0" r="4" fill="#e74c3c"/>
  <text x="212.1" y="130.0" text-anchor="middle" fill="#e74c3c" font-size="13" font-weight="bold">33°C</text>
  <text x="778.0" y="240.0" fill="#e74c3c" font-size="13" font-weight="bold" dominant-baseline="middle">31°C</text>
</svg>