<svg xmlns="http://www.w3.org/2000/svg" viewBox="0 0 800 400" width="800" height="400">
  <rect width="800" height="400" fill="white" rx="8"/>
  <text x="400.0" y="25" text-anchor="middle" font-size="16" font-weight="bold" fill="#333">Singapore Temperature (WSSS) - 2026-04-21</text>
  <line x1="60" y1="340.0" x2="770" y2="340.0" stroke="#e0e0e0" stroke-width="1"/><line x1="60" y1="265.0" x2="770" y2="265.0" stroke="#e0e0e0" stroke-width="1"/><line x1="60" y1="190.0" x2="770" y2="190.0" stroke="#e0e0e0" stroke-width="1"/><line x1="60" y1="115.0" x2="770" y2="115.0" stroke="#e0e0e0" stroke-width="1"/><line x1="60" y1="40.0" x2="770" y2="40.0" stroke="#e0e0e0" stroke-width="1"/>
  <text x="50" y="340.0" text-anchor="end" dominant-baseline="middle" fill="#666" font-size="12">24°C</text><text x="50" y="265.0" text-anchor="end" dominant-baseline="middle" fill="#666" font-size="12">26°C</text><text x="50" y="190.0" text-anchor="end" dominant-baseline="middle" fill="#666" font-size="12">28°C</text><text x="50" y="115.0" text-anchor="end" dominant-baseline="middle" fill="#666" font-size="12">30°C</text><text x="50" y="40.0" text-anchor="end" dominant-baseline="middle" fill="#666" font-size="12">32°C</text>
  <text x="60.0" y="360" text-anchor="middle" fill="#666" font-size="11">10:58</text><text x="161.4" y="360" text-anchor="middle" fill="#666" font-size="11">12:07</text><text x="262.9" y="360" text-anchor="middle" fill="#666" font-size="11">13:09</text><text x="364.3" y="360" text-anchor="middle" fill="#666" font-size="11">13:54</text><text x="465.7" y="360" text-anchor="middle" fill="#666" font-size="11">14:30</text><text x="567.1" y="360" text-anchor="middle" fill="#666" font-size="11">15:09</text><text x="668.6" y="360" text-anchor="middle" fill="#666" font-size="11">15:50</text><text x="770.0" y="360" text-anchor="middle" fill="#666" font-size="11">16:24</text>
  <line x1="60" y1="40" x2="60" y2="340" stroke="#ccc" stroke-width="1"/>
  <line x1="60" y1="340" x2="770" y2="340" stroke="#ccc" stroke-width="1"/>
  <polyline points="60.0,115.0 161.4,227.5 262.9,227.5 364.3,227.5 465.7,227.5 567.1,265.0 668.6,265.0 770.0,265.0" fill="none" stroke="#e74c3c" stroke-width="2"/>
  <circle cx="60.0" cy="115.0" r="4" fill="#e74c3c"/>
  <text x="60.0" y="105.0" text-anchor="middle" fill="#e74c3c" font-size="13" font-weight="bold">30°C</text>
  <text x="778.0" y="265.0" fill="#e74c3c" font-size="13" font-weight="bold" dominant-baseline="middle">26°C</text>
</svg>