<svg xmlns="http://www.w3.org/2000/svg" viewBox="0 0 800 400" width="800" height="400">
  <rect width="800" height="400" fill="white" rx="8"/>
  <text x="400.0" y="25" text-anchor="middle" font-size="16" font-weight="bold" fill="#333">Singapore Temperature (WSSS) - 2026-04-09</text>
  <line x1="60" y1="340.0" x2="770" y2="340.0" stroke="#e0e0e0" stroke-width="1"/><line x1="60" y1="290.0" x2="770" y2="290.0" stroke="#e0e0e0" stroke-width="1"/><line x1="60" y1="240.0" x2="770" y2="240.0" stroke="#e0e0e0" stroke-width="1"/><line x1="60" y1="190.0" x2="770" y2="190.0" stroke="#e0e0e0" stroke-width="1"/><line x1="60" y1="140.0" x2="770" y2="140.0" stroke="#e0e0e0" stroke-width="1"/><line x1="60" y1="90.0" x2="770" y2="90.0" stroke="#e0e0e0" stroke-width="1"/><line x1="60" y1="40.0" x2="770" y2="40.0" stroke="#e0e0e0" stroke-width="1"/>
  <text x="50" y="340.0" text-anchor="end" dominant-baseline="middle" fill="#666" font-size="12">26°C</text><text x="50" y="290.0" text-anchor="end" dominant-baseline="middle" fill="#666" font-size="12">27°C</text><text x="50" y="240.0" text-anchor="end" dominant-baseline="middle" fill="#666" font-size="12">28°C</text><text x="50" y="190.0" text-anchor="end" dominant-baseline="middle" fill="#666" font-size="12">29°C</text><text x="50" y="140.0" text-anchor="end" dominant-baseline="middle" fill="#666" font-size="12">30°C</text><text x="50" y="90.0" text-anchor="end" dominant-baseline="middle" fill="#666" font-size="12">31°C</text><text x="50" y="40.0" text-anchor="end" dominant-baseline="middle" fill="#666" font-size="12">32°C</text>
  <text x="60.0" y="360" text-anchor="middle" fill="#666" font-size="11">10:57</text><text x="138.9" y="360" text-anchor="middle" fill="#666" font-size="11">12:00</text><text x="217.8" y="360" text-anchor="middle" fill="#666" font-size="11">12:55</text><text x="296.7" y="360" text-anchor="middle" fill="#666" font-size="11">13:34</text><text x="375.6" y="360" text-anchor="middle" fill="#666" font-size="11">14:09</text><text x="454.4" y="360" text-anchor="middle" fill="#666" font-size="11">14:46</text><text x="533.3" y="360" text-anchor="middle" fill="#666" font-size="11">15:16</text><text x="612.2" y="360" text-anchor="middle" fill="#666" font-size="11">15:54</text><text x="691.1" y="360" text-anchor="middle" fill="#666" font-size="11">16:24</text><text x="770.0" y="360" text-anchor="middle" fill="#666" font-size="11">16:52</text>
  <line x1="60" y1="40" x2="60" y2="340" stroke="#ccc" stroke-width="1"/>
  <line x1="60" y1="340" x2="770" y2="340" stroke="#ccc" stroke-width="1"/>
  <polyline points="60.0,240.0 138.9,190.0 217.8,140.0 296.7,190.0 375.6,190.0 454.4,240.0 533.3,190.0 612.2,190.0 691.1,190.0 770.0,190.0" fill="none" stroke="#e74c3c" stroke-width="2"/>
  <circle cx="217.8" cy="140.0" r="4" fill="#e74c3c"/>
  <text x="217.8" y="130.0" text-anchor="middle" fill="#e74c3c" font-size="13" font-weight="bold">30°C</text>
  <text x="778.0" y="190.0" fill="#e74c3c" font-size="13" font-weight="bold" dominant-baseline="middle">29°C</text>
</svg>