<svg xmlns="http://www.w3.org/2000/svg" viewBox="0 0 800 400" width="800" height="400">
  <rect width="800" height="400" fill="white" rx="8"/>
  <text x="400.0" y="25" text-anchor="middle" font-size="16" font-weight="bold" fill="#333">Singapore Temperature (WSSS) - 2026-05-24</text>
  <line x1="60" y1="340.0" x2="770" y2="340.0" stroke="#e0e0e0" stroke-width="1"/><line x1="60" y1="285.5" x2="770" y2="285.5" stroke="#e0e0e0" stroke-width="1"/><line x1="60" y1="230.9" x2="770" y2="230.9" stroke="#e0e0e0" stroke-width="1"/><line x1="60" y1="176.4" x2="770" y2="176.4" stroke="#e0e0e0" stroke-width="1"/><line x1="60" y1="121.8" x2="770" y2="121.8" stroke="#e0e0e0" stroke-width="1"/><line x1="60" y1="67.3" x2="770" y2="67.3" stroke="#e0e0e0" stroke-width="1"/>
  <text x="50" y="340.0" text-anchor="end" dominant-baseline="middle" fill="#666" font-size="12">24°C</text><text x="50" y="285.5" text-anchor="end" dominant-baseline="middle" fill="#666" font-size="12">26°C</text><text x="50" y="230.9" text-anchor="end" dominant-baseline="middle" fill="#666" font-size="12">28°C</text><text x="50" y="176.4" text-anchor="end" dominant-baseline="middle" fill="#666" font-size="12">30°C</text><text x="50" y="121.8" text-anchor="end" dominant-baseline="middle" fill="#666" font-size="12">32°C</text><text x="50" y="67.3" text-anchor="end" dominant-baseline="middle" fill="#666" font-size="12">34°C</text>
  <text x="60.0" y="360" text-anchor="middle" fill="#666" font-size="11">10:59</text><text x="237.5" y="360" text-anchor="middle" fill="#666" font-size="11">12:34</text><text x="415.0" y="360" text-anchor="middle" fill="#666" font-size="11">13:58</text><text x="592.5" y="360" text-anchor="middle" fill="#666" font-size="11">15:16</text><text x="770.0" y="360" text-anchor="middle" fill="#666" font-size="11">16:07</text>
  <line x1="60" y1="40" x2="60" y2="340" stroke="#ccc" stroke-width="1"/>
  <line x1="60" y1="340" x2="770" y2="340" stroke="#ccc" stroke-width="1"/>
  <polyline points="60.0,149.1 237.5,94.5 415.0,149.1 592.5,230.9 770.0,285.5" fill="none" stroke="#e74c3c" stroke-width="2"/>
  <circle cx="237.5" cy="94.5" r="4" fill="#e74c3c"/>
  <text x="237.5" y="84.5" text-anchor="middle" fill="#e74c3c" font-size="13" font-weight="bold">33°C</text>
  <text x="778.0" y="285.5" fill="#e74c3c" font-size="13" font-weight="bold" dominant-baseline="middle">26°C</text>
</svg>