<svg xmlns="http://www.w3.org/2000/svg" viewBox="0 0 800 400" width="800" height="400">
  <rect width="800" height="400" fill="white" rx="8"/>
  <text x="400.0" y="25" text-anchor="middle" font-size="16" font-weight="bold" fill="#333">Singapore Temperature (WSSS) - 2026-04-19</text>
  <line x1="60" y1="340.0" x2="770" y2="340.0" stroke="#e0e0e0" stroke-width="1"/><line x1="60" y1="265.0" x2="770" y2="265.0" stroke="#e0e0e0" stroke-width="1"/><line x1="60" y1="190.0" x2="770" y2="190.0" stroke="#e0e0e0" stroke-width="1"/><line x1="60" y1="115.0" x2="770" y2="115.0" stroke="#e0e0e0" stroke-width="1"/><line x1="60" y1="40.0" x2="770" y2="40.0" stroke="#e0e0e0" stroke-width="1"/>
  <text x="50" y="340.0" text-anchor="end" dominant-baseline="middle" fill="#666" font-size="12">26°C</text><text x="50" y="265.0" text-anchor="end" dominant-baseline="middle" fill="#666" font-size="12">28°C</text><text x="50" y="190.0" text-anchor="end" dominant-baseline="middle" fill="#666" font-size="12">30°C</text><text x="50" y="115.0" text-anchor="end" dominant-baseline="middle" fill="#666" font-size="12">32°C</text><text x="50" y="40.0" text-anchor="end" dominant-baseline="middle" fill="#666" font-size="12">34°C</text>
  <text x="60.0" y="360" text-anchor="middle" fill="#666" font-size="11">10:59</text><text x="138.9" y="360" text-anchor="middle" fill="#666" font-size="11">12:09</text><text x="217.8" y="360" text-anchor="middle" fill="#666" font-size="11">13:11</text><text x="296.7" y="360" text-anchor="middle" fill="#666" font-size="11">13:55</text><text x="375.6" y="360" text-anchor="middle" fill="#666" font-size="11">14:29</text><text x="454.4" y="360" text-anchor="middle" fill="#666" font-size="11">15:00</text><text x="533.3" y="360" text-anchor="middle" fill="#666" font-size="11">15:38</text><text x="612.2" y="360" text-anchor="middle" fill="#666" font-size="11">16:04</text><text x="691.1" y="360" text-anchor="middle" fill="#666" font-size="11">16:30</text><text x="770.0" y="360" text-anchor="middle" fill="#666" font-size="11">16:52</text>
  <line x1="60" y1="40" x2="60" y2="340" stroke="#ccc" stroke-width="1"/>
  <line x1="60" y1="340" x2="770" y2="340" stroke="#ccc" stroke-width="1"/>
  <polyline points="60.0,115.0 138.9,152.5 217.8,115.0 296.7,152.5 375.6,115.0 454.4,265.0 533.3,265.0 612.2,190.0 691.1,190.0 770.0,227.5" fill="none" stroke="#e74c3c" stroke-width="2"/>
  <circle cx="60.0" cy="115.0" r="4" fill="#e74c3c"/>
  <text x="60.0" y="105.0" text-anchor="middle" fill="#e74c3c" font-size="13" font-weight="bold">32°C</text>
  <text x="778.0" y="227.5" fill="#e74c3c" font-size="13" font-weight="bold" dominant-baseline="middle">29°C</text>
</svg>