<svg xmlns="http://www.w3.org/2000/svg" viewBox="0 0 800 400" width="800" height="400">
  <rect width="800" height="400" fill="white" rx="8"/>
  <text x="400.0" y="25" text-anchor="middle" font-size="16" font-weight="bold" fill="#333">Singapore Temperature (WSSS) - 2026-04-15</text>
  <line x1="60" y1="340.0" x2="770" y2="340.0" stroke="#e0e0e0" stroke-width="1"/><line x1="60" y1="265.0" x2="770" y2="265.0" stroke="#e0e0e0" stroke-width="1"/><line x1="60" y1="190.0" x2="770" y2="190.0" stroke="#e0e0e0" stroke-width="1"/><line x1="60" y1="115.0" x2="770" y2="115.0" stroke="#e0e0e0" stroke-width="1"/><line x1="60" y1="40.0" x2="770" y2="40.0" stroke="#e0e0e0" stroke-width="1"/>
  <text x="50" y="340.0" text-anchor="end" dominant-baseline="middle" fill="#666" font-size="12">26°C</text><text x="50" y="265.0" text-anchor="end" dominant-baseline="middle" fill="#666" font-size="12">28°C</text><text x="50" y="190.0" text-anchor="end" dominant-baseline="middle" fill="#666" font-size="12">30°C</text><text x="50" y="115.0" text-anchor="end" dominant-baseline="middle" fill="#666" font-size="12">32°C</text><text x="50" y="40.0" text-anchor="end" dominant-baseline="middle" fill="#666" font-size="12">34°C</text>
  <text x="60.0" y="360" text-anchor="middle" fill="#666" font-size="11">10:58</text><text x="119.2" y="360" text-anchor="middle" fill="#666" font-size="11">12:06</text><text x="178.3" y="360" text-anchor="middle" fill="#666" font-size="11">13:07</text><text x="237.5" y="360" text-anchor="middle" fill="#666" font-size="11">13:52</text><text x="296.7" y="360" text-anchor="middle" fill="#666" font-size="11">14:27</text><text x="355.8" y="360" text-anchor="middle" fill="#666" font-size="11">15:05</text><text x="415.0" y="360" text-anchor="middle" fill="#666" font-size="11">15:44</text><text x="474.2" y="360" text-anchor="middle" fill="#666" font-size="11">16:18</text><text x="533.3" y="360" text-anchor="middle" fill="#666" font-size="11">16:55</text><text x="592.5" y="360" text-anchor="middle" fill="#666" font-size="11">17:30</text><text x="651.7" y="360" text-anchor="middle" fill="#666" font-size="11">18:00</text><text x="710.8" y="360" text-anchor="middle" fill="#666" font-size="11">18:36</text><text x="770.0" y="360" text-anchor="middle" fill="#666" font-size="11">19:00</text>
  <line x1="60" y1="40" x2="60" y2="340" stroke="#ccc" stroke-width="1"/>
  <line x1="60" y1="340" x2="770" y2="340" stroke="#ccc" stroke-width="1"/>
  <polyline points="60.0,265.0 119.2,265.0 178.3,190.0 237.5,190.0 296.7,152.5 355.8,152.5 415.0,152.5 474.2,152.5 533.3,115.0 592.5,152.5 651.7,152.5 710.8,152.5 770.0,190.0" fill="none" stroke="#e74c3c" stroke-width="2"/>
  <circle cx="533.3" cy="115.0" r="4" fill="#e74c3c"/>
  <text x="533.3" y="105.0" text-anchor="middle" fill="#e74c3c" font-size="13" font-weight="bold">32°C</text>
  <text x="778.0" y="190.0" fill="#e74c3c" font-size="13" font-weight="bold" dominant-baseline="middle">30°C</text>
</svg>