<svg xmlns="http://www.w3.org/2000/svg" viewBox="0 0 800 400" width="800" height="400">
  <rect width="800" height="400" fill="white" rx="8"/>
  <text x="400.0" y="25" text-anchor="middle" font-size="16" font-weight="bold" fill="#333">Singapore Temperature (WSSS) - 2026-04-19</text>
  <line x1="60" y1="340.0" x2="770" y2="340.0" stroke="#e0e0e0" stroke-width="1"/><line x1="60" y1="285.5" x2="770" y2="285.5" stroke="#e0e0e0" stroke-width="1"/><line x1="60" y1="230.9" x2="770" y2="230.9" stroke="#e0e0e0" stroke-width="1"/><line x1="60" y1="176.4" x2="770" y2="176.4" stroke="#e0e0e0" stroke-width="1"/><line x1="60" y1="121.8" x2="770" y2="121.8" stroke="#e0e0e0" stroke-width="1"/><line x1="60" y1="67.3" x2="770" y2="67.3" stroke="#e0e0e0" stroke-width="1"/>
  <text x="50" y="340.0" text-anchor="end" dominant-baseline="middle" fill="#666" font-size="12">23°C</text><text x="50" y="285.5" text-anchor="end" dominant-baseline="middle" fill="#666" font-size="12">25°C</text><text x="50" y="230.9" text-anchor="end" dominant-baseline="middle" fill="#666" font-size="12">27°C</text><text x="50" y="176.4" text-anchor="end" dominant-baseline="middle" fill="#666" font-size="12">29°C</text><text x="50" y="121.8" text-anchor="end" dominant-baseline="middle" fill="#666" font-size="12">31°C</text><text x="50" y="67.3" text-anchor="end" dominant-baseline="middle" fill="#666" font-size="12">33°C</text>
  <text x="60.0" y="360" text-anchor="middle" fill="#666" font-size="11">10:59</text><text x="104.4" y="360" text-anchor="middle" fill="#666" font-size="11">12:09</text><text x="148.8" y="360" text-anchor="middle" fill="#666" font-size="11">13:11</text><text x="193.1" y="360" text-anchor="middle" fill="#666" font-size="11">13:55</text><text x="237.5" y="360" text-anchor="middle" fill="#666" font-size="11">14:29</text><text x="281.9" y="360" text-anchor="middle" fill="#666" font-size="11">15:00</text><text x="326.2" y="360" text-anchor="middle" fill="#666" font-size="11">15:38</text><text x="370.6" y="360" text-anchor="middle" fill="#666" font-size="11">16:04</text><text x="415.0" y="360" text-anchor="middle" fill="#666" font-size="11">16:30</text><text x="459.4" y="360" text-anchor="middle" fill="#666" font-size="11">16:52</text><text x="503.8" y="360" text-anchor="middle" fill="#666" font-size="11">17:11</text><text x="548.1" y="360" text-anchor="middle" fill="#666" font-size="11">17:30</text><text x="592.5" y="360" text-anchor="middle" fill="#666" font-size="11">17:51</text><text x="636.9" y="360" text-anchor="middle" fill="#666" font-size="11">18:08</text><text x="681.2" y="360" text-anchor="middle" fill="#666" font-size="11">18:25</text><text x="725.6" y="360" text-anchor="middle" fill="#666" font-size="11">18:43</text><text x="770.0" y="360" text-anchor="middle" fill="#666" font-size="11">19:02</text>
  <line x1="60" y1="40" x2="60" y2="340" stroke="#ccc" stroke-width="1"/>
  <line x1="60" y1="340" x2="770" y2="340" stroke="#ccc" stroke-width="1"/>
  <polyline points="60.0,94.5 104.4,121.8 148.8,94.5 193.1,121.8 237.5,94.5 281.9,203.6 326.2,203.6 370.6,149.1 415.0,149.1 459.4,176.4 503.8,203.6 548.1,203.6 592.5,230.9 636.9,258.2 681.2,230.9 725.6,285.5 770.0,285.5" fill="none" stroke="#e74c3c" stroke-width="2"/>
  <circle cx="60.0" cy="94.5" r="4" fill="#e74c3c"/>
  <text x="60.0" y="84.5" text-anchor="middle" fill="#e74c3c" font-size="13" font-weight="bold">32°C</text>
  <text x="778.0" y="285.5" fill="#e74c3c" font-size="13" font-weight="bold" dominant-baseline="middle">25°C</text>
</svg>