<svg xmlns="http://www.w3.org/2000/svg" viewBox="0 0 800 400" width="800" height="400">
  <rect width="800" height="400" fill="white" rx="8"/>
  <text x="400.0" y="25" text-anchor="middle" font-size="16" font-weight="bold" fill="#333">Singapore Temperature (WSSS) - 2026-04-05</text>
  <line x1="60" y1="340.0" x2="770" y2="340.0" stroke="#e0e0e0" stroke-width="1"/><line x1="60" y1="265.0" x2="770" y2="265.0" stroke="#e0e0e0" stroke-width="1"/><line x1="60" y1="190.0" x2="770" y2="190.0" stroke="#e0e0e0" stroke-width="1"/><line x1="60" y1="115.0" x2="770" y2="115.0" stroke="#e0e0e0" stroke-width="1"/><line x1="60" y1="40.0" x2="770" y2="40.0" stroke="#e0e0e0" stroke-width="1"/>
  <text x="50" y="340.0" text-anchor="end" dominant-baseline="middle" fill="#666" font-size="12">27°C</text><text x="50" y="265.0" text-anchor="end" dominant-baseline="middle" fill="#666" font-size="12">29°C</text><text x="50" y="190.0" text-anchor="end" dominant-baseline="middle" fill="#666" font-size="12">31°C</text><text x="50" y="115.0" text-anchor="end" dominant-baseline="middle" fill="#666" font-size="12">33°C</text><text x="50" y="40.0" text-anchor="end" dominant-baseline="middle" fill="#666" font-size="12">35°C</text>
  <text x="60.0" y="360" text-anchor="middle" fill="#666" font-size="11">10:58</text><text x="134.7" y="360" text-anchor="middle" fill="#666" font-size="11">12:59</text><text x="209.5" y="360" text-anchor="middle" fill="#666" font-size="11">14:07</text><text x="284.2" y="360" text-anchor="middle" fill="#666" font-size="11">15:04</text><text x="358.9" y="360" text-anchor="middle" fill="#666" font-size="11">15:56</text><text x="433.7" y="360" text-anchor="middle" fill="#666" font-size="11">16:27</text><text x="508.4" y="360" text-anchor="middle" fill="#666" font-size="11">17:03</text><text x="583.2" y="360" text-anchor="middle" fill="#666" font-size="11">17:40</text><text x="657.9" y="360" text-anchor="middle" fill="#666" font-size="11">18:14</text><text x="732.6" y="360" text-anchor="middle" fill="#666" font-size="11">18:48</text><text x="770.0" y="360" text-anchor="middle" fill="#666" font-size="11">19:02</text>
  <line x1="60" y1="40" x2="60" y2="340" stroke="#ccc" stroke-width="1"/>
  <line x1="60" y1="340" x2="770" y2="340" stroke="#ccc" stroke-width="1"/>
  <polyline points="60.0,190.0 97.4,152.5 134.7,152.5 172.1,115.0 209.5,152.5 246.8,115.0 284.2,115.0 321.6,152.5 358.9,152.5 396.3,190.0 433.7,190.0 471.1,190.0 508.4,190.0 545.8,190.0 583.2,190.0 620.5,190.0 657.9,190.0 695.3,190.0 732.6,227.5 770.0,265.0" fill="none" stroke="#e74c3c" stroke-width="2"/>
  <circle cx="172.1" cy="115.0" r="4" fill="#e74c3c"/>
  <text x="172.1" y="105.0" text-anchor="middle" fill="#e74c3c" font-size="13" font-weight="bold">33°C</text>
  <text x="778.0" y="265.0" fill="#e74c3c" font-size="13" font-weight="bold" dominant-baseline="middle">29°C</text>
</svg>