<svg xmlns="http://www.w3.org/2000/svg" viewBox="0 0 800 400" width="800" height="400">
  <rect width="800" height="400" fill="white" rx="8"/>
  <text x="400.0" y="25" text-anchor="middle" font-size="16" font-weight="bold" fill="#333">Singapore Temperature (WSSS) - 2026-08-16</text>
  <line x1="60" y1="340.0" x2="770" y2="340.0" stroke="#e0e0e0" stroke-width="1"/><line x1="60" y1="280.0" x2="770" y2="280.0" stroke="#e0e0e0" stroke-width="1"/><line x1="60" y1="220.0" x2="770" y2="220.0" stroke="#e0e0e0" stroke-width="1"/><line x1="60" y1="160.0" x2="770" y2="160.0" stroke="#e0e0e0" stroke-width="1"/><line x1="60" y1="100.0" x2="770" y2="100.0" stroke="#e0e0e0" stroke-width="1"/><line x1="60" y1="40.0" x2="770" y2="40.0" stroke="#e0e0e0" stroke-width="1"/>
  <text x="50" y="340.0" text-anchor="end" dominant-baseline="middle" fill="#666" font-size="12">29°C</text><text x="50" y="280.0" text-anchor="end" dominant-baseline="middle" fill="#666" font-size="12">30°C</text><text x="50" y="220.0" text-anchor="end" dominant-baseline="middle" fill="#666" font-size="12">31°C</text><text x="50" y="160.0" text-anchor="end" dominant-baseline="middle" fill="#666" font-size="12">32°C</text><text x="50" y="100.0" text-anchor="end" dominant-baseline="middle" fill="#666" font-size="12">33°C</text><text x="50" y="40.0" text-anchor="end" dominant-baseline="middle" fill="#666" font-size="12">34°C</text>
  <text x="60.0" y="360" text-anchor="middle" fill="#666" font-size="11">10:49</text><text x="104.4" y="360" text-anchor="middle" fill="#666" font-size="11">11:34</text><text x="148.8" y="360" text-anchor="middle" fill="#666" font-size="11">12:10</text><text x="193.1" y="360" text-anchor="middle" fill="#666" font-size="11">12:46</text><text x="237.5" y="360" text-anchor="middle" fill="#666" font-size="11">13:11</text><text x="281.9" y="360" text-anchor="middle" fill="#666" font-size="11">13:39</text><text x="326.2" y="360" text-anchor="middle" fill="#666" font-size="11">13:58</text><text x="370.6" y="360" text-anchor="middle" fill="#666" font-size="11">14:31</text><text x="415.0" y="360" text-anchor="middle" fill="#666" font-size="11">15:08</text><text x="459.4" y="360" text-anchor="middle" fill="#666" font-size="11">15:40</text><text x="503.8" y="360" text-anchor="middle" fill="#666" font-size="11">15:57</text><text x="548.1" y="360" text-anchor="middle" fill="#666" font-size="11">16:19</text><text x="592.5" y="360" text-anchor="middle" fill="#666" font-size="11">16:49</text><text x="636.9" y="360" text-anchor="middle" fill="#666" font-size="11">17:10</text><text x="681.2" y="360" text-anchor="middle" fill="#666" font-size="11">17:37</text><text x="725.6" y="360" text-anchor="middle" fill="#666" font-size="11">17:54</text><text x="770.0" y="360" text-anchor="middle" fill="#666" font-size="11">18:09</text>
  <line x1="60" y1="40" x2="60" y2="340" stroke="#ccc" stroke-width="1"/>
  <line x1="60" y1="340" x2="770" y2="340" stroke="#ccc" stroke-width="1"/>
  <polyline points="60.0,220.0 104.4,220.0 148.8,220.0 193.1,160.0 237.5,160.0 281.9,160.0 326.2,160.0 370.6,160.0 415.0,160.0 459.4,220.0 503.8,220.0 548.1,220.0 592.5,160.0 636.9,220.0 681.2,220.0 725.6,160.0 770.0,220.0" fill="none" stroke="#e74c3c" stroke-width="2"/>
  <circle cx="193.1" cy="160.0" r="4" fill="#e74c3c"/>
  <text x="193.1" y="150.0" text-anchor="middle" fill="#e74c3c" font-size="13" font-weight="bold">32°C</text>
  <text x="778.0" y="220.0" fill="#e74c3c" font-size="13" font-weight="bold" dominant-baseline="middle">31°C</text>
</svg>