<svg xmlns="http://www.w3.org/2000/svg" viewBox="0 0 800 400" width="800" height="400">
  <rect width="800" height="400" fill="white" rx="8"/>
  <text x="400.0" y="25" text-anchor="middle" font-size="16" font-weight="bold" fill="#333">Singapore Temperature (WSSS) - 2026-04-26</text>
  <line x1="60" y1="340.0" x2="770" y2="340.0" stroke="#e0e0e0" stroke-width="1"/><line x1="60" y1="297.1" x2="770" y2="297.1" stroke="#e0e0e0" stroke-width="1"/><line x1="60" y1="254.3" x2="770" y2="254.3" stroke="#e0e0e0" stroke-width="1"/><line x1="60" y1="211.4" x2="770" y2="211.4" stroke="#e0e0e0" stroke-width="1"/><line x1="60" y1="168.6" x2="770" y2="168.6" stroke="#e0e0e0" stroke-width="1"/><line x1="60" y1="125.7" x2="770" y2="125.7" stroke="#e0e0e0" stroke-width="1"/><line x1="60" y1="82.9" x2="770" y2="82.9" stroke="#e0e0e0" stroke-width="1"/><line x1="60" y1="40.0" x2="770" y2="40.0" stroke="#e0e0e0" stroke-width="1"/>
  <text x="50" y="340.0" text-anchor="end" dominant-baseline="middle" fill="#666" font-size="12">26°C</text><text x="50" y="297.1" text-anchor="end" dominant-baseline="middle" fill="#666" font-size="12">27°C</text><text x="50" y="254.3" text-anchor="end" dominant-baseline="middle" fill="#666" font-size="12">28°C</text><text x="50" y="211.4" text-anchor="end" dominant-baseline="middle" fill="#666" font-size="12">29°C</text><text x="50" y="168.6" text-anchor="end" dominant-baseline="middle" fill="#666" font-size="12">30°C</text><text x="50" y="125.7" text-anchor="end" dominant-baseline="middle" fill="#666" font-size="12">31°C</text><text x="50" y="82.9" text-anchor="end" dominant-baseline="middle" fill="#666" font-size="12">32°C</text><text x="50" y="40.0" text-anchor="end" dominant-baseline="middle" fill="#666" font-size="12">33°C</text>
  <text x="60.0" y="360" text-anchor="middle" fill="#666" font-size="11">10:58</text><text x="124.5" y="360" text-anchor="middle" fill="#666" font-size="11">12:14</text><text x="189.1" y="360" text-anchor="middle" fill="#666" font-size="11">13:20</text><text x="253.6" y="360" text-anchor="middle" fill="#666" font-size="11">14:07</text><text x="318.2" y="360" text-anchor="middle" fill="#666" font-size="11">14:51</text><text x="382.7" y="360" text-anchor="middle" fill="#666" font-size="11">15:23</text><text x="447.3" y="360" text-anchor="middle" fill="#666" font-size="11">15:58</text><text x="511.8" y="360" text-anchor="middle" fill="#666" font-size="11">16:33</text><text x="576.4" y="360" text-anchor="middle" fill="#666" font-size="11">16:56</text><text x="640.9" y="360" text-anchor="middle" fill="#666" font-size="11">17:21</text><text x="705.5" y="360" text-anchor="middle" fill="#666" font-size="11">17:41</text><text x="770.0" y="360" text-anchor="middle" fill="#666" font-size="11">18:03</text>
  <line x1="60" y1="40" x2="60" y2="340" stroke="#ccc" stroke-width="1"/>
  <line x1="60" y1="340" x2="770" y2="340" stroke="#ccc" stroke-width="1"/>
  <polyline points="60.0,125.7 124.5,254.3 189.1,168.6 253.6,254.3 318.2,254.3 382.7,254.3 447.3,254.3 511.8,211.4 576.4,168.6 640.9,168.6 705.5,125.7 770.0,125.7" fill="none" stroke="#e74c3c" stroke-width="2"/>
  <circle cx="60.0" cy="125.7" r="4" fill="#e74c3c"/>
  <text x="60.0" y="115.7" text-anchor="middle" fill="#e74c3c" font-size="13" font-weight="bold">31°C</text>
  <text x="778.0" y="125.7" fill="#e74c3c" font-size="13" font-weight="bold" dominant-baseline="middle">31°C</text>
</svg>