<svg xmlns="http://www.w3.org/2000/svg" viewBox="0 0 800 400" width="800" height="400">
  <rect width="800" height="400" fill="white" rx="8"/>
  <text x="400.0" y="25" text-anchor="middle" font-size="16" font-weight="bold" fill="#333">Singapore Temperature (WSSS) - 2026-04-23</text>
  <line x1="60" y1="340.0" x2="770" y2="340.0" stroke="#e0e0e0" stroke-width="1"/><line x1="60" y1="273.3" x2="770" y2="273.3" stroke="#e0e0e0" stroke-width="1"/><line x1="60" y1="206.7" x2="770" y2="206.7" stroke="#e0e0e0" stroke-width="1"/><line x1="60" y1="140.0" x2="770" y2="140.0" stroke="#e0e0e0" stroke-width="1"/><line x1="60" y1="73.3" x2="770" y2="73.3" stroke="#e0e0e0" stroke-width="1"/>
  <text x="50" y="340.0" text-anchor="end" dominant-baseline="middle" fill="#666" font-size="12">27°C</text><text x="50" y="273.3" text-anchor="end" dominant-baseline="middle" fill="#666" font-size="12">29°C</text><text x="50" y="206.7" text-anchor="end" dominant-baseline="middle" fill="#666" font-size="12">31°C</text><text x="50" y="140.0" text-anchor="end" dominant-baseline="middle" fill="#666" font-size="12">33°C</text><text x="50" y="73.3" text-anchor="end" dominant-baseline="middle" fill="#666" font-size="12">35°C</text>
  <text x="60.0" y="360" text-anchor="middle" fill="#666" font-size="11">10:58</text><text x="124.5" y="360" text-anchor="middle" fill="#666" font-size="11">12:08</text><text x="189.1" y="360" text-anchor="middle" fill="#666" font-size="11">13:11</text><text x="253.6" y="360" text-anchor="middle" fill="#666" font-size="11">13:56</text><text x="318.2" y="360" text-anchor="middle" fill="#666" font-size="11">14:38</text><text x="382.7" y="360" text-anchor="middle" fill="#666" font-size="11">15:15</text><text x="447.3" y="360" text-anchor="middle" fill="#666" font-size="11">15:58</text><text x="511.8" y="360" text-anchor="middle" fill="#666" font-size="11">16:46</text><text x="576.4" y="360" text-anchor="middle" fill="#666" font-size="11">17:17</text><text x="640.9" y="360" text-anchor="middle" fill="#666" font-size="11">17:56</text><text x="705.5" y="360" text-anchor="middle" fill="#666" font-size="11">18:30</text><text x="770.0" y="360" text-anchor="middle" fill="#666" font-size="11">18:57</text>
  <line x1="60" y1="40" x2="60" y2="340" stroke="#ccc" stroke-width="1"/>
  <line x1="60" y1="340" x2="770" y2="340" stroke="#ccc" stroke-width="1"/>
  <polyline points="60.0,206.7 124.5,173.3 189.1,140.0 253.6,140.0 318.2,106.7 382.7,140.0 447.3,140.0 511.8,173.3 576.4,206.7 640.9,206.7 705.5,240.0 770.0,273.3" fill="none" stroke="#e74c3c" stroke-width="2"/>
  <circle cx="318.2" cy="106.7" r="4" fill="#e74c3c"/>
  <text x="318.2" y="96.7" text-anchor="middle" fill="#e74c3c" font-size="13" font-weight="bold">34°C</text>
  <text x="778.0" y="273.3" fill="#e74c3c" font-size="13" font-weight="bold" dominant-baseline="middle">29°C</text>
</svg>