<svg xmlns="http://www.w3.org/2000/svg" viewBox="0 0 800 400" width="800" height="400">
  <rect width="800" height="400" fill="white" rx="8"/>
  <text x="400.0" y="25" text-anchor="middle" font-size="16" font-weight="bold" fill="#333">Singapore Temperature (WSSS) - 2026-08-26</text>
  <line x1="60" y1="340.0" x2="770" y2="340.0" stroke="#e0e0e0" stroke-width="1"/><line x1="60" y1="273.3" x2="770" y2="273.3" stroke="#e0e0e0" stroke-width="1"/><line x1="60" y1="206.7" x2="770" y2="206.7" stroke="#e0e0e0" stroke-width="1"/><line x1="60" y1="140.0" x2="770" y2="140.0" stroke="#e0e0e0" stroke-width="1"/><line x1="60" y1="73.3" x2="770" y2="73.3" stroke="#e0e0e0" stroke-width="1"/>
  <text x="50" y="340.0" text-anchor="end" dominant-baseline="middle" fill="#666" font-size="12">24°C</text><text x="50" y="273.3" text-anchor="end" dominant-baseline="middle" fill="#666" font-size="12">26°C</text><text x="50" y="206.7" text-anchor="end" dominant-baseline="middle" fill="#666" font-size="12">28°C</text><text x="50" y="140.0" text-anchor="end" dominant-baseline="middle" fill="#666" font-size="12">30°C</text><text x="50" y="73.3" text-anchor="end" dominant-baseline="middle" fill="#666" font-size="12">32°C</text>
  <text x="60.0" y="360" text-anchor="middle" fill="#666" font-size="11">10:54</text><text x="114.6" y="360" text-anchor="middle" fill="#666" font-size="11">11:40</text><text x="169.2" y="360" text-anchor="middle" fill="#666" font-size="11">12:21</text><text x="223.8" y="360" text-anchor="middle" fill="#666" font-size="11">12:58</text><text x="278.5" y="360" text-anchor="middle" fill="#666" font-size="11">13:30</text><text x="333.1" y="360" text-anchor="middle" fill="#666" font-size="11">13:59</text><text x="387.7" y="360" text-anchor="middle" fill="#666" font-size="11">14:45</text><text x="442.3" y="360" text-anchor="middle" fill="#666" font-size="11">15:32</text><text x="496.9" y="360" text-anchor="middle" fill="#666" font-size="11">16:08</text><text x="551.5" y="360" text-anchor="middle" fill="#666" font-size="11">16:57</text><text x="606.2" y="360" text-anchor="middle" fill="#666" font-size="11">17:34</text><text x="660.8" y="360" text-anchor="middle" fill="#666" font-size="11">18:07</text><text x="715.4" y="360" text-anchor="middle" fill="#666" font-size="11">18:47</text><text x="770.0" y="360" text-anchor="middle" fill="#666" font-size="11">19:13</text>
  <line x1="60" y1="40" x2="60" y2="340" stroke="#ccc" stroke-width="1"/>
  <line x1="60" y1="340" x2="770" y2="340" stroke="#ccc" stroke-width="1"/>
  <polyline points="60.0,106.7 114.6,106.7 169.2,106.7 223.8,206.7 278.5,240.0 333.1,206.7 387.7,273.3 442.3,273.3 496.9,240.0 551.5,240.0 606.2,273.3 660.8,273.3 715.4,240.0 770.0,240.0" fill="none" stroke="#e74c3c" stroke-width="2"/>
  <circle cx="60.0" cy="106.7" r="4" fill="#e74c3c"/>
  <text x="60.0" y="96.7" text-anchor="middle" fill="#e74c3c" font-size="13" font-weight="bold">31°C</text>
  <text x="778.0" y="240.0" fill="#e74c3c" font-size="13" font-weight="bold" dominant-baseline="middle">27°C</text>
</svg>