<svg xmlns="http://www.w3.org/2000/svg" viewBox="0 0 800 400" width="800" height="400">
  <rect width="800" height="400" fill="white" rx="8"/>
  <text x="400.0" y="25" text-anchor="middle" font-size="16" font-weight="bold" fill="#333">Singapore Temperature (WSSS) - 2026-04-11</text>
  <line x1="60" y1="340.0" x2="770" y2="340.0" stroke="#e0e0e0" stroke-width="1"/><line x1="60" y1="280.0" x2="770" y2="280.0" stroke="#e0e0e0" stroke-width="1"/><line x1="60" y1="220.0" x2="770" y2="220.0" stroke="#e0e0e0" stroke-width="1"/><line x1="60" y1="160.0" x2="770" y2="160.0" stroke="#e0e0e0" stroke-width="1"/><line x1="60" y1="100.0" x2="770" y2="100.0" stroke="#e0e0e0" stroke-width="1"/><line x1="60" y1="40.0" x2="770" y2="40.0" stroke="#e0e0e0" stroke-width="1"/>
  <text x="50" y="340.0" text-anchor="end" dominant-baseline="middle" fill="#666" font-size="12">28°C</text><text x="50" y="280.0" text-anchor="end" dominant-baseline="middle" fill="#666" font-size="12">29°C</text><text x="50" y="220.0" text-anchor="end" dominant-baseline="middle" fill="#666" font-size="12">30°C</text><text x="50" y="160.0" text-anchor="end" dominant-baseline="middle" fill="#666" font-size="12">31°C</text><text x="50" y="100.0" text-anchor="end" dominant-baseline="middle" fill="#666" font-size="12">32°C</text><text x="50" y="40.0" text-anchor="end" dominant-baseline="middle" fill="#666" font-size="12">33°C</text>
  <text x="60.0" y="360" text-anchor="middle" fill="#666" font-size="11">10:57</text><text x="114.6" y="360" text-anchor="middle" fill="#666" font-size="11">11:52</text><text x="169.2" y="360" text-anchor="middle" fill="#666" font-size="11">12:34</text><text x="223.8" y="360" text-anchor="middle" fill="#666" font-size="11">13:12</text><text x="278.5" y="360" text-anchor="middle" fill="#666" font-size="11">13:42</text><text x="333.1" y="360" text-anchor="middle" fill="#666" font-size="11">14:07</text><text x="387.7" y="360" text-anchor="middle" fill="#666" font-size="11">14:34</text><text x="442.3" y="360" text-anchor="middle" fill="#666" font-size="11">14:58</text><text x="496.9" y="360" text-anchor="middle" fill="#666" font-size="11">15:27</text><text x="551.5" y="360" text-anchor="middle" fill="#666" font-size="11">15:47</text><text x="606.2" y="360" text-anchor="middle" fill="#666" font-size="11">16:03</text><text x="660.8" y="360" text-anchor="middle" fill="#666" font-size="11">16:23</text><text x="715.4" y="360" text-anchor="middle" fill="#666" font-size="11">16:41</text><text x="770.0" y="360" text-anchor="middle" fill="#666" font-size="11">17:01</text>
  <line x1="60" y1="40" x2="60" y2="340" stroke="#ccc" stroke-width="1"/>
  <line x1="60" y1="340" x2="770" y2="340" stroke="#ccc" stroke-width="1"/>
  <polyline points="60.0,160.0 114.6,160.0 169.2,220.0 223.8,160.0 278.5,160.0 333.1,160.0 387.7,160.0 442.3,160.0 496.9,160.0 551.5,160.0 606.2,160.0 660.8,160.0 715.4,220.0 770.0,220.0" fill="none" stroke="#e74c3c" stroke-width="2"/>
  <circle cx="60.0" cy="160.0" r="4" fill="#e74c3c"/>
  <text x="60.0" y="150.0" text-anchor="middle" fill="#e74c3c" font-size="13" font-weight="bold">31°C</text>
  <text x="778.0" y="220.0" fill="#e74c3c" font-size="13" font-weight="bold" dominant-baseline="middle">30°C</text>
</svg>