<svg xmlns="http://www.w3.org/2000/svg" viewBox="0 0 800 400" width="800" height="400">
  <rect width="800" height="400" fill="white" rx="8"/>
  <text x="400.0" y="25" text-anchor="middle" font-size="16" font-weight="bold" fill="#333">Singapore Temperature (WSSS) - 2026-04-07</text>
  <line x1="60" y1="340.0" x2="770" y2="340.0" stroke="#e0e0e0" stroke-width="1"/><line x1="60" y1="280.0" x2="770" y2="280.0" stroke="#e0e0e0" stroke-width="1"/><line x1="60" y1="220.0" x2="770" y2="220.0" stroke="#e0e0e0" stroke-width="1"/><line x1="60" y1="160.0" x2="770" y2="160.0" stroke="#e0e0e0" stroke-width="1"/><line x1="60" y1="100.0" x2="770" y2="100.0" stroke="#e0e0e0" stroke-width="1"/><line x1="60" y1="40.0" x2="770" y2="40.0" stroke="#e0e0e0" stroke-width="1"/>
  <text x="50" y="340.0" text-anchor="end" dominant-baseline="middle" fill="#666" font-size="12">23°C</text><text x="50" y="280.0" text-anchor="end" dominant-baseline="middle" fill="#666" font-size="12">24°C</text><text x="50" y="220.0" text-anchor="end" dominant-baseline="middle" fill="#666" font-size="12">25°C</text><text x="50" y="160.0" text-anchor="end" dominant-baseline="middle" fill="#666" font-size="12">26°C</text><text x="50" y="100.0" text-anchor="end" dominant-baseline="middle" fill="#666" font-size="12">27°C</text><text x="50" y="40.0" text-anchor="end" dominant-baseline="middle" fill="#666" font-size="12">28°C</text>
  <text x="60.0" y="360" text-anchor="middle" fill="#666" font-size="11">10:58</text><text x="178.3" y="360" text-anchor="middle" fill="#666" font-size="11">12:01</text><text x="296.7" y="360" text-anchor="middle" fill="#666" font-size="11">12:56</text><text x="415.0" y="360" text-anchor="middle" fill="#666" font-size="11">13:35</text><text x="533.3" y="360" text-anchor="middle" fill="#666" font-size="11">14:08</text><text x="651.7" y="360" text-anchor="middle" fill="#666" font-size="11">14:44</text><text x="770.0" y="360" text-anchor="middle" fill="#666" font-size="11">15:13</text>
  <line x1="60" y1="40" x2="60" y2="340" stroke="#ccc" stroke-width="1"/>
  <line x1="60" y1="340" x2="770" y2="340" stroke="#ccc" stroke-width="1"/>
  <polyline points="60.0,220.0 178.3,220.0 296.7,220.0 415.0,220.0 533.3,220.0 651.7,220.0 770.0,160.0" fill="none" stroke="#e74c3c" stroke-width="2"/>
  <circle cx="770.0" cy="160.0" r="4" fill="#e74c3c"/>
  <text x="770.0" y="150.0" text-anchor="middle" fill="#e74c3c" font-size="13" font-weight="bold">26°C</text>
  <text x="778.0" y="160.0" fill="#e74c3c" font-size="13" font-weight="bold" dominant-baseline="middle">26°C</text>
</svg>