<svg xmlns="http://www.w3.org/2000/svg" viewBox="0 0 800 400" width="800" height="400">
  <rect width="800" height="400" fill="white" rx="8"/>
  <text x="400.0" y="25" text-anchor="middle" font-size="16" font-weight="bold" fill="#333">Singapore Temperature (WSSS) - 2026-04-05</text>
  <line x1="60" y1="340.0" x2="770" y2="340.0" stroke="#e0e0e0" stroke-width="1"/><line x1="60" y1="297.1" x2="770" y2="297.1" stroke="#e0e0e0" stroke-width="1"/><line x1="60" y1="254.3" x2="770" y2="254.3" stroke="#e0e0e0" stroke-width="1"/><line x1="60" y1="211.4" x2="770" y2="211.4" stroke="#e0e0e0" stroke-width="1"/><line x1="60" y1="168.6" x2="770" y2="168.6" stroke="#e0e0e0" stroke-width="1"/><line x1="60" y1="125.7" x2="770" y2="125.7" stroke="#e0e0e0" stroke-width="1"/><line x1="60" y1="82.9" x2="770" y2="82.9" stroke="#e0e0e0" stroke-width="1"/><line x1="60" y1="40.0" x2="770" y2="40.0" stroke="#e0e0e0" stroke-width="1"/>
  <text x="50" y="340.0" text-anchor="end" dominant-baseline="middle" fill="#666" font-size="12">28°C</text><text x="50" y="297.1" text-anchor="end" dominant-baseline="middle" fill="#666" font-size="12">29°C</text><text x="50" y="254.3" text-anchor="end" dominant-baseline="middle" fill="#666" font-size="12">30°C</text><text x="50" y="211.4" text-anchor="end" dominant-baseline="middle" fill="#666" font-size="12">31°C</text><text x="50" y="168.6" text-anchor="end" dominant-baseline="middle" fill="#666" font-size="12">32°C</text><text x="50" y="125.7" text-anchor="end" dominant-baseline="middle" fill="#666" font-size="12">33°C</text><text x="50" y="82.9" text-anchor="end" dominant-baseline="middle" fill="#666" font-size="12">34°C</text><text x="50" y="40.0" text-anchor="end" dominant-baseline="middle" fill="#666" font-size="12">35°C</text>
  <text x="60.0" y="360" text-anchor="middle" fill="#666" font-size="11">10:58</text><text x="99.4" y="360" text-anchor="middle" fill="#666" font-size="11">12:04</text><text x="138.9" y="360" text-anchor="middle" fill="#666" font-size="11">12:59</text><text x="178.3" y="360" text-anchor="middle" fill="#666" font-size="11">13:39</text><text x="217.8" y="360" text-anchor="middle" fill="#666" font-size="11">14:07</text><text x="257.2" y="360" text-anchor="middle" fill="#666" font-size="11">14:38</text><text x="296.7" y="360" text-anchor="middle" fill="#666" font-size="11">15:04</text><text x="336.1" y="360" text-anchor="middle" fill="#666" font-size="11">15:33</text><text x="375.6" y="360" text-anchor="middle" fill="#666" font-size="11">15:56</text><text x="415.0" y="360" text-anchor="middle" fill="#666" font-size="11">16:11</text><text x="454.4" y="360" text-anchor="middle" fill="#666" font-size="11">16:27</text><text x="493.9" y="360" text-anchor="middle" fill="#666" font-size="11">16:46</text><text x="533.3" y="360" text-anchor="middle" fill="#666" font-size="11">17:03</text><text x="572.8" y="360" text-anchor="middle" fill="#666" font-size="11">17:23</text><text x="612.2" y="360" text-anchor="middle" fill="#666" font-size="11">17:40</text><text x="651.7" y="360" text-anchor="middle" fill="#666" font-size="11">17:58</text><text x="691.1" y="360" text-anchor="middle" fill="#666" font-size="11">18:14</text><text x="730.6" y="360" text-anchor="middle" fill="#666" font-size="11">18:29</text><text x="770.0" y="360" text-anchor="middle" fill="#666" font-size="11">18:48</text>
  <line x1="60" y1="40" x2="60" y2="340" stroke="#ccc" stroke-width="1"/>
  <line x1="60" y1="340" x2="770" y2="340" stroke="#ccc" stroke-width="1"/>
  <polyline points="60.0,211.4 99.4,168.6 138.9,168.6 178.3,125.7 217.8,168.6 257.2,125.7 296.7,125.7 336.1,168.6 375.6,168.6 415.0,211.4 454.4,211.4 493.9,211.4 533.3,211.4 572.8,211.4 612.2,211.4 651.7,211.4 691.1,211.4 730.6,211.4 770.0,254.3" fill="none" stroke="#e74c3c" stroke-width="2"/>
  <circle cx="178.3" cy="125.7" r="4" fill="#e74c3c"/>
  <text x="178.3" y="115.7" text-anchor="middle" fill="#e74c3c" font-size="13" font-weight="bold">33°C</text>
  <text x="778.0" y="254.3" fill="#e74c3c" font-size="13" font-weight="bold" dominant-baseline="middle">30°C</text>
</svg>