<svg xmlns="http://www.w3.org/2000/svg" viewBox="0 0 800 400" width="800" height="400">
  <rect width="800" height="400" fill="white" rx="8"/>
  <text x="400.0" y="25" text-anchor="middle" font-size="16" font-weight="bold" fill="#333">Singapore Temperature (WSSS) - 2026-04-04</text>
  <line x1="60" y1="340.0" x2="770" y2="340.0" stroke="#e0e0e0" stroke-width="1"/><line x1="60" y1="290.0" x2="770" y2="290.0" stroke="#e0e0e0" stroke-width="1"/><line x1="60" y1="240.0" x2="770" y2="240.0" stroke="#e0e0e0" stroke-width="1"/><line x1="60" y1="190.0" x2="770" y2="190.0" stroke="#e0e0e0" stroke-width="1"/><line x1="60" y1="140.0" x2="770" y2="140.0" stroke="#e0e0e0" stroke-width="1"/><line x1="60" y1="90.0" x2="770" y2="90.0" stroke="#e0e0e0" stroke-width="1"/><line x1="60" y1="40.0" x2="770" y2="40.0" stroke="#e0e0e0" stroke-width="1"/>
  <text x="50" y="340.0" text-anchor="end" dominant-baseline="middle" fill="#666" font-size="12">29°C</text><text x="50" y="290.0" text-anchor="end" dominant-baseline="middle" fill="#666" font-size="12">30°C</text><text x="50" y="240.0" text-anchor="end" dominant-baseline="middle" fill="#666" font-size="12">31°C</text><text x="50" y="190.0" text-anchor="end" dominant-baseline="middle" fill="#666" font-size="12">32°C</text><text x="50" y="140.0" text-anchor="end" dominant-baseline="middle" fill="#666" font-size="12">33°C</text><text x="50" y="90.0" text-anchor="end" dominant-baseline="middle" fill="#666" font-size="12">34°C</text><text x="50" y="40.0" text-anchor="end" dominant-baseline="middle" fill="#666" font-size="12">35°C</text>
  <text x="60.0" y="360" text-anchor="middle" fill="#666" font-size="11">10:55</text><text x="114.6" y="360" text-anchor="middle" fill="#666" font-size="11">11:47</text><text x="169.2" y="360" text-anchor="middle" fill="#666" font-size="11">12:30</text><text x="223.8" y="360" text-anchor="middle" fill="#666" font-size="11">13:07</text><text x="278.5" y="360" text-anchor="middle" fill="#666" font-size="11">13:37</text><text x="333.1" y="360" text-anchor="middle" fill="#666" font-size="11">14:01</text><text x="387.7" y="360" text-anchor="middle" fill="#666" font-size="11">14:32</text><text x="442.3" y="360" text-anchor="middle" fill="#666" font-size="11">14:56</text><text x="496.9" y="360" text-anchor="middle" fill="#666" font-size="11">15:22</text><text x="551.5" y="360" text-anchor="middle" fill="#666" font-size="11">15:42</text><text x="606.2" y="360" text-anchor="middle" fill="#666" font-size="11">15:59</text><text x="660.8" y="360" text-anchor="middle" fill="#666" font-size="11">16:21</text><text x="715.4" y="360" text-anchor="middle" fill="#666" font-size="11">16:38</text><text x="770.0" y="360" text-anchor="middle" fill="#666" font-size="11">16:58</text>
  <line x1="60" y1="40" x2="60" y2="340" stroke="#ccc" stroke-width="1"/>
  <line x1="60" y1="340" x2="770" y2="340" stroke="#ccc" stroke-width="1"/>
  <polyline points="60.0,240.0 114.6,190.0 169.2,190.0 223.8,190.0 278.5,190.0 333.1,190.0 387.7,140.0 442.3,190.0 496.9,190.0 551.5,240.0 606.2,240.0 660.8,190.0 715.4,190.0 770.0,190.0" fill="none" stroke="#e74c3c" stroke-width="2"/>
  <circle cx="387.7" cy="140.0" r="4" fill="#e74c3c"/>
  <text x="387.7" y="130.0" text-anchor="middle" fill="#e74c3c" font-size="13" font-weight="bold">33°C</text>
  <text x="778.0" y="190.0" fill="#e74c3c" font-size="13" font-weight="bold" dominant-baseline="middle">32°C</text>
</svg>