<svg xmlns="http://www.w3.org/2000/svg" viewBox="0 0 800 400" width="800" height="400">
  <rect width="800" height="400" fill="white" rx="8"/>
  <text x="400.0" y="25" text-anchor="middle" font-size="16" font-weight="bold" fill="#333">Singapore Temperature (WSSS) - 2026-04-13</text>
  <line x1="60" y1="340.0" x2="770" y2="340.0" stroke="#e0e0e0" stroke-width="1"/><line x1="60" y1="273.3" x2="770" y2="273.3" stroke="#e0e0e0" stroke-width="1"/><line x1="60" y1="206.7" x2="770" y2="206.7" stroke="#e0e0e0" stroke-width="1"/><line x1="60" y1="140.0" x2="770" y2="140.0" stroke="#e0e0e0" stroke-width="1"/><line x1="60" y1="73.3" x2="770" y2="73.3" stroke="#e0e0e0" stroke-width="1"/>
  <text x="50" y="340.0" text-anchor="end" dominant-baseline="middle" fill="#666" font-size="12">27°C</text><text x="50" y="273.3" text-anchor="end" dominant-baseline="middle" fill="#666" font-size="12">29°C</text><text x="50" y="206.7" text-anchor="end" dominant-baseline="middle" fill="#666" font-size="12">31°C</text><text x="50" y="140.0" text-anchor="end" dominant-baseline="middle" fill="#666" font-size="12">33°C</text><text x="50" y="73.3" text-anchor="end" dominant-baseline="middle" fill="#666" font-size="12">35°C</text>
  <text x="60.0" y="360" text-anchor="middle" fill="#666" font-size="11">10:59</text><text x="138.9" y="360" text-anchor="middle" fill="#666" font-size="11">12:13</text><text x="217.8" y="360" text-anchor="middle" fill="#666" font-size="11">13:21</text><text x="296.7" y="360" text-anchor="middle" fill="#666" font-size="11">14:10</text><text x="375.6" y="360" text-anchor="middle" fill="#666" font-size="11">15:01</text><text x="454.4" y="360" text-anchor="middle" fill="#666" font-size="11">15:43</text><text x="533.3" y="360" text-anchor="middle" fill="#666" font-size="11">16:27</text><text x="612.2" y="360" text-anchor="middle" fill="#666" font-size="11">17:11</text><text x="691.1" y="360" text-anchor="middle" fill="#666" font-size="11">17:53</text><text x="770.0" y="360" text-anchor="middle" fill="#666" font-size="11">18:27</text>
  <line x1="60" y1="40" x2="60" y2="340" stroke="#ccc" stroke-width="1"/>
  <line x1="60" y1="340" x2="770" y2="340" stroke="#ccc" stroke-width="1"/>
  <polyline points="60.0,206.7 138.9,173.3 217.8,140.0 296.7,140.0 375.6,106.7 454.4,173.3 533.3,206.7 612.2,173.3 691.1,206.7 770.0,273.3" fill="none" stroke="#e74c3c" stroke-width="2"/>
  <circle cx="375.6" cy="106.7" r="4" fill="#e74c3c"/>
  <text x="375.6" y="96.7" text-anchor="middle" fill="#e74c3c" font-size="13" font-weight="bold">34°C</text>
  <text x="778.0" y="273.3" fill="#e74c3c" font-size="13" font-weight="bold" dominant-baseline="middle">29°C</text>
</svg>