<svg xmlns="http://www.w3.org/2000/svg" viewBox="0 0 800 400" width="800" height="400">
  <rect width="800" height="400" fill="white" rx="8"/>
  <text x="400.0" y="25" text-anchor="middle" font-size="16" font-weight="bold" fill="#333">Singapore Temperature (WSSS) - 2026-04-30</text>
  <line x1="60" y1="340.0" x2="770" y2="340.0" stroke="#e0e0e0" stroke-width="1"/><line x1="60" y1="265.0" x2="770" y2="265.0" stroke="#e0e0e0" stroke-width="1"/><line x1="60" y1="190.0" x2="770" y2="190.0" stroke="#e0e0e0" stroke-width="1"/><line x1="60" y1="115.0" x2="770" y2="115.0" stroke="#e0e0e0" stroke-width="1"/><line x1="60" y1="40.0" x2="770" y2="40.0" stroke="#e0e0e0" stroke-width="1"/>
  <text x="50" y="340.0" text-anchor="end" dominant-baseline="middle" fill="#666" font-size="12">28°C</text><text x="50" y="265.0" text-anchor="end" dominant-baseline="middle" fill="#666" font-size="12">30°C</text><text x="50" y="190.0" text-anchor="end" dominant-baseline="middle" fill="#666" font-size="12">32°C</text><text x="50" y="115.0" text-anchor="end" dominant-baseline="middle" fill="#666" font-size="12">34°C</text><text x="50" y="40.0" text-anchor="end" dominant-baseline="middle" fill="#666" font-size="12">36°C</text>
  <text x="60.0" y="360" text-anchor="middle" fill="#666" font-size="11">10:59</text><text x="138.9" y="360" text-anchor="middle" fill="#666" font-size="11">12:21</text><text x="217.8" y="360" text-anchor="middle" fill="#666" font-size="11">13:36</text><text x="296.7" y="360" text-anchor="middle" fill="#666" font-size="11">14:30</text><text x="375.6" y="360" text-anchor="middle" fill="#666" font-size="11">15:23</text><text x="454.4" y="360" text-anchor="middle" fill="#666" font-size="11">16:12</text><text x="533.3" y="360" text-anchor="middle" fill="#666" font-size="11">17:02</text><text x="612.2" y="360" text-anchor="middle" fill="#666" font-size="11">17:51</text><text x="691.1" y="360" text-anchor="middle" fill="#666" font-size="11">18:29</text><text x="770.0" y="360" text-anchor="middle" fill="#666" font-size="11">19:10</text>
  <line x1="60" y1="40" x2="60" y2="340" stroke="#ccc" stroke-width="1"/>
  <line x1="60" y1="340" x2="770" y2="340" stroke="#ccc" stroke-width="1"/>
  <polyline points="60.0,190.0 138.9,152.5 217.8,115.0 296.7,190.0 375.6,190.0 454.4,152.5 533.3,152.5 612.2,227.5 691.1,265.0 770.0,227.5" fill="none" stroke="#e74c3c" stroke-width="2"/>
  <circle cx="217.8" cy="115.0" r="4" fill="#e74c3c"/>
  <text x="217.8" y="105.0" text-anchor="middle" fill="#e74c3c" font-size="13" font-weight="bold">34°C</text>
  <text x="778.0" y="227.5" fill="#e74c3c" font-size="13" font-weight="bold" dominant-baseline="middle">31°C</text>
</svg>