<svg xmlns="http://www.w3.org/2000/svg" viewBox="0 0 800 400" width="800" height="400">
  <rect width="800" height="400" fill="white" rx="8"/>
  <text x="400.0" y="25" text-anchor="middle" font-size="16" font-weight="bold" fill="#333">Singapore Temperature (WSSS) - 2026-04-13</text>
  <line x1="60" y1="340.0" x2="770" y2="340.0" stroke="#e0e0e0" stroke-width="1"/><line x1="60" y1="280.0" x2="770" y2="280.0" stroke="#e0e0e0" stroke-width="1"/><line x1="60" y1="220.0" x2="770" y2="220.0" stroke="#e0e0e0" stroke-width="1"/><line x1="60" y1="160.0" x2="770" y2="160.0" stroke="#e0e0e0" stroke-width="1"/><line x1="60" y1="100.0" x2="770" y2="100.0" stroke="#e0e0e0" stroke-width="1"/><line x1="60" y1="40.0" x2="770" y2="40.0" stroke="#e0e0e0" stroke-width="1"/>
  <text x="50" y="340.0" text-anchor="end" dominant-baseline="middle" fill="#666" font-size="12">26°C</text><text x="50" y="280.0" text-anchor="end" dominant-baseline="middle" fill="#666" font-size="12">28°C</text><text x="50" y="220.0" text-anchor="end" dominant-baseline="middle" fill="#666" font-size="12">30°C</text><text x="50" y="160.0" text-anchor="end" dominant-baseline="middle" fill="#666" font-size="12">32°C</text><text x="50" y="100.0" text-anchor="end" dominant-baseline="middle" fill="#666" font-size="12">34°C</text><text x="50" y="40.0" text-anchor="end" dominant-baseline="middle" fill="#666" font-size="12">36°C</text>
  <text x="60.0" y="360" text-anchor="middle" fill="#666" font-size="11">10:59</text><text x="131.0" y="360" text-anchor="middle" fill="#666" font-size="11">12:13</text><text x="202.0" y="360" text-anchor="middle" fill="#666" font-size="11">13:21</text><text x="273.0" y="360" text-anchor="middle" fill="#666" font-size="11">14:10</text><text x="344.0" y="360" text-anchor="middle" fill="#666" font-size="11">15:01</text><text x="415.0" y="360" text-anchor="middle" fill="#666" font-size="11">15:43</text><text x="486.0" y="360" text-anchor="middle" fill="#666" font-size="11">16:27</text><text x="557.0" y="360" text-anchor="middle" fill="#666" font-size="11">17:11</text><text x="628.0" y="360" text-anchor="middle" fill="#666" font-size="11">17:53</text><text x="699.0" y="360" text-anchor="middle" fill="#666" font-size="11">18:27</text><text x="770.0" y="360" text-anchor="middle" fill="#666" font-size="11">19:02</text>
  <line x1="60" y1="40" x2="60" y2="340" stroke="#ccc" stroke-width="1"/>
  <line x1="60" y1="340" x2="770" y2="340" stroke="#ccc" stroke-width="1"/>
  <polyline points="60.0,190.0 131.0,160.0 202.0,130.0 273.0,130.0 344.0,100.0 415.0,160.0 486.0,190.0 557.0,160.0 628.0,190.0 699.0,250.0 770.0,280.0" fill="none" stroke="#e74c3c" stroke-width="2"/>
  <circle cx="344.0" cy="100.0" r="4" fill="#e74c3c"/>
  <text x="344.0" y="90.0" text-anchor="middle" fill="#e74c3c" font-size="13" font-weight="bold">34°C</text>
  <text x="778.0" y="280.0" fill="#e74c3c" font-size="13" font-weight="bold" dominant-baseline="middle">28°C</text>
</svg>