<svg xmlns="http://www.w3.org/2000/svg" viewBox="0 0 800 400" width="800" height="400">
  <rect width="800" height="400" fill="white" rx="8"/>
  <text x="400.0" y="25" text-anchor="middle" font-size="16" font-weight="bold" fill="#333">Singapore Temperature (WSSS) - 2026-04-21</text>
  <line x1="60" y1="340.0" x2="770" y2="340.0" stroke="#e0e0e0" stroke-width="1"/><line x1="60" y1="273.3" x2="770" y2="273.3" stroke="#e0e0e0" stroke-width="1"/><line x1="60" y1="206.7" x2="770" y2="206.7" stroke="#e0e0e0" stroke-width="1"/><line x1="60" y1="140.0" x2="770" y2="140.0" stroke="#e0e0e0" stroke-width="1"/><line x1="60" y1="73.3" x2="770" y2="73.3" stroke="#e0e0e0" stroke-width="1"/>
  <text x="50" y="340.0" text-anchor="end" dominant-baseline="middle" fill="#666" font-size="12">23°C</text><text x="50" y="273.3" text-anchor="end" dominant-baseline="middle" fill="#666" font-size="12">25°C</text><text x="50" y="206.7" text-anchor="end" dominant-baseline="middle" fill="#666" font-size="12">27°C</text><text x="50" y="140.0" text-anchor="end" dominant-baseline="middle" fill="#666" font-size="12">29°C</text><text x="50" y="73.3" text-anchor="end" dominant-baseline="middle" fill="#666" font-size="12">31°C</text>
  <text x="60.0" y="360" text-anchor="middle" fill="#666" font-size="11">10:58</text><text x="131.0" y="360" text-anchor="middle" fill="#666" font-size="11">12:07</text><text x="202.0" y="360" text-anchor="middle" fill="#666" font-size="11">13:09</text><text x="273.0" y="360" text-anchor="middle" fill="#666" font-size="11">13:54</text><text x="344.0" y="360" text-anchor="middle" fill="#666" font-size="11">14:30</text><text x="415.0" y="360" text-anchor="middle" fill="#666" font-size="11">15:09</text><text x="486.0" y="360" text-anchor="middle" fill="#666" font-size="11">15:50</text><text x="557.0" y="360" text-anchor="middle" fill="#666" font-size="11">16:24</text><text x="628.0" y="360" text-anchor="middle" fill="#666" font-size="11">17:04</text><text x="699.0" y="360" text-anchor="middle" fill="#666" font-size="11">17:42</text><text x="770.0" y="360" text-anchor="middle" fill="#666" font-size="11">18:11</text>
  <line x1="60" y1="40" x2="60" y2="340" stroke="#ccc" stroke-width="1"/>
  <line x1="60" y1="340" x2="770" y2="340" stroke="#ccc" stroke-width="1"/>
  <polyline points="60.0,106.7 131.0,206.7 202.0,206.7 273.0,206.7 344.0,206.7 415.0,240.0 486.0,240.0 557.0,240.0 628.0,273.3 699.0,273.3 770.0,273.3" fill="none" stroke="#e74c3c" stroke-width="2"/>
  <circle cx="60.0" cy="106.7" r="4" fill="#e74c3c"/>
  <text x="60.0" y="96.7" text-anchor="middle" fill="#e74c3c" font-size="13" font-weight="bold">30°C</text>
  <text x="778.0" y="273.3" fill="#e74c3c" font-size="13" font-weight="bold" dominant-baseline="middle">25°C</text>
</svg>