<svg xmlns="http://www.w3.org/2000/svg" viewBox="0 0 800 400" width="800" height="400">
  <rect width="800" height="400" fill="white" rx="8"/>
  <text x="400.0" y="25" text-anchor="middle" font-size="16" font-weight="bold" fill="#333">Singapore Temperature (WSSS) - 2026-04-08</text>
  <line x1="60" y1="340.0" x2="770" y2="340.0" stroke="#e0e0e0" stroke-width="1"/><line x1="60" y1="265.0" x2="770" y2="265.0" stroke="#e0e0e0" stroke-width="1"/><line x1="60" y1="190.0" x2="770" y2="190.0" stroke="#e0e0e0" stroke-width="1"/><line x1="60" y1="115.0" x2="770" y2="115.0" stroke="#e0e0e0" stroke-width="1"/><line x1="60" y1="40.0" x2="770" y2="40.0" stroke="#e0e0e0" stroke-width="1"/>
  <text x="50" y="340.0" text-anchor="end" dominant-baseline="middle" fill="#666" font-size="12">26°C</text><text x="50" y="265.0" text-anchor="end" dominant-baseline="middle" fill="#666" font-size="12">28°C</text><text x="50" y="190.0" text-anchor="end" dominant-baseline="middle" fill="#666" font-size="12">30°C</text><text x="50" y="115.0" text-anchor="end" dominant-baseline="middle" fill="#666" font-size="12">32°C</text><text x="50" y="40.0" text-anchor="end" dominant-baseline="middle" fill="#666" font-size="12">34°C</text>
  <text x="60.0" y="360" text-anchor="middle" fill="#666" font-size="11">10:58</text><text x="110.7" y="360" text-anchor="middle" fill="#666" font-size="11">12:03</text><text x="161.4" y="360" text-anchor="middle" fill="#666" font-size="11">12:58</text><text x="212.1" y="360" text-anchor="middle" fill="#666" font-size="11">13:39</text><text x="262.9" y="360" text-anchor="middle" fill="#666" font-size="11">14:11</text><text x="313.6" y="360" text-anchor="middle" fill="#666" font-size="11">14:48</text><text x="364.3" y="360" text-anchor="middle" fill="#666" font-size="11">15:19</text><text x="415.0" y="360" text-anchor="middle" fill="#666" font-size="11">15:55</text><text x="465.7" y="360" text-anchor="middle" fill="#666" font-size="11">16:25</text><text x="516.4" y="360" text-anchor="middle" fill="#666" font-size="11">16:47</text><text x="567.1" y="360" text-anchor="middle" fill="#666" font-size="11">17:15</text><text x="617.9" y="360" text-anchor="middle" fill="#666" font-size="11">17:44</text><text x="668.6" y="360" text-anchor="middle" fill="#666" font-size="11">18:12</text><text x="719.3" y="360" text-anchor="middle" fill="#666" font-size="11">18:38</text><text x="770.0" y="360" text-anchor="middle" fill="#666" font-size="11">19:02</text>
  <line x1="60" y1="40" x2="60" y2="340" stroke="#ccc" stroke-width="1"/>
  <line x1="60" y1="340" x2="770" y2="340" stroke="#ccc" stroke-width="1"/>
  <polyline points="60.0,190.0 110.7,115.0 161.4,115.0 212.1,115.0 262.9,115.0 313.6,115.0 364.3,115.0 415.0,115.0 465.7,115.0 516.4,115.0 567.1,115.0 617.9,152.5 668.6,152.5 719.3,190.0 770.0,265.0" fill="none" stroke="#e74c3c" stroke-width="2"/>
  <circle cx="110.7" cy="115.0" r="4" fill="#e74c3c"/>
  <text x="110.7" y="105.0" text-anchor="middle" fill="#e74c3c" font-size="13" font-weight="bold">32°C</text>
  <text x="778.0" y="265.0" fill="#e74c3c" font-size="13" font-weight="bold" dominant-baseline="middle">28°C</text>
</svg>