<svg xmlns="http://www.w3.org/2000/svg" viewBox="0 0 800 400" width="800" height="400">
  <rect width="800" height="400" fill="white" rx="8"/>
  <text x="400.0" y="25" text-anchor="middle" font-size="16" font-weight="bold" fill="#333">Singapore Temperature (WSSS) - 2026-04-19</text>
  <line x1="60" y1="340.0" x2="770" y2="340.0" stroke="#e0e0e0" stroke-width="1"/><line x1="60" y1="285.5" x2="770" y2="285.5" stroke="#e0e0e0" stroke-width="1"/><line x1="60" y1="230.9" x2="770" y2="230.9" stroke="#e0e0e0" stroke-width="1"/><line x1="60" y1="176.4" x2="770" y2="176.4" stroke="#e0e0e0" stroke-width="1"/><line x1="60" y1="121.8" x2="770" y2="121.8" stroke="#e0e0e0" stroke-width="1"/><line x1="60" y1="67.3" x2="770" y2="67.3" stroke="#e0e0e0" stroke-width="1"/>
  <text x="50" y="340.0" text-anchor="end" dominant-baseline="middle" fill="#666" font-size="12">23°C</text><text x="50" y="285.5" text-anchor="end" dominant-baseline="middle" fill="#666" font-size="12">25°C</text><text x="50" y="230.9" text-anchor="end" dominant-baseline="middle" fill="#666" font-size="12">27°C</text><text x="50" y="176.4" text-anchor="end" dominant-baseline="middle" fill="#666" font-size="12">29°C</text><text x="50" y="121.8" text-anchor="end" dominant-baseline="middle" fill="#666" font-size="12">31°C</text><text x="50" y="67.3" text-anchor="end" dominant-baseline="middle" fill="#666" font-size="12">33°C</text>
  <text x="60.0" y="360" text-anchor="middle" fill="#666" font-size="11">10:59</text><text x="107.3" y="360" text-anchor="middle" fill="#666" font-size="11">12:09</text><text x="154.7" y="360" text-anchor="middle" fill="#666" font-size="11">13:11</text><text x="202.0" y="360" text-anchor="middle" fill="#666" font-size="11">13:55</text><text x="249.3" y="360" text-anchor="middle" fill="#666" font-size="11">14:29</text><text x="296.7" y="360" text-anchor="middle" fill="#666" font-size="11">15:00</text><text x="344.0" y="360" text-anchor="middle" fill="#666" font-size="11">15:38</text><text x="391.3" y="360" text-anchor="middle" fill="#666" font-size="11">16:04</text><text x="438.7" y="360" text-anchor="middle" fill="#666" font-size="11">16:30</text><text x="486.0" y="360" text-anchor="middle" fill="#666" font-size="11">16:52</text><text x="533.3" y="360" text-anchor="middle" fill="#666" font-size="11">17:11</text><text x="580.7" y="360" text-anchor="middle" fill="#666" font-size="11">17:30</text><text x="628.0" y="360" text-anchor="middle" fill="#666" font-size="11">17:51</text><text x="675.3" y="360" text-anchor="middle" fill="#666" font-size="11">18:08</text><text x="722.7" y="360" text-anchor="middle" fill="#666" font-size="11">18:25</text><text x="770.0" y="360" text-anchor="middle" fill="#666" font-size="11">18:43</text>
  <line x1="60" y1="40" x2="60" y2="340" stroke="#ccc" stroke-width="1"/>
  <line x1="60" y1="340" x2="770" y2="340" stroke="#ccc" stroke-width="1"/>
  <polyline points="60.0,94.5 107.3,121.8 154.7,94.5 202.0,121.8 249.3,94.5 296.7,203.6 344.0,203.6 391.3,149.1 438.7,149.1 486.0,176.4 533.3,203.6 580.7,203.6 628.0,230.9 675.3,258.2 722.7,230.9 770.0,285.5" fill="none" stroke="#e74c3c" stroke-width="2"/>
  <circle cx="60.0" cy="94.5" r="4" fill="#e74c3c"/>
  <text x="60.0" y="84.5" text-anchor="middle" fill="#e74c3c" font-size="13" font-weight="bold">32°C</text>
  <text x="778.0" y="285.5" fill="#e74c3c" font-size="13" font-weight="bold" dominant-baseline="middle">25°C</text>
</svg>