<svg xmlns="http://www.w3.org/2000/svg" viewBox="0 0 800 400" width="800" height="400">
  <rect width="800" height="400" fill="white" rx="8"/>
  <text x="400.0" y="25" text-anchor="middle" font-size="16" font-weight="bold" fill="#333">Singapore Temperature (WSSS) - 2026-04-07</text>
  <line x1="60" y1="340.0" x2="770" y2="340.0" stroke="#e0e0e0" stroke-width="1"/><line x1="60" y1="290.0" x2="770" y2="290.0" stroke="#e0e0e0" stroke-width="1"/><line x1="60" y1="240.0" x2="770" y2="240.0" stroke="#e0e0e0" stroke-width="1"/><line x1="60" y1="190.0" x2="770" y2="190.0" stroke="#e0e0e0" stroke-width="1"/><line x1="60" y1="140.0" x2="770" y2="140.0" stroke="#e0e0e0" stroke-width="1"/><line x1="60" y1="90.0" x2="770" y2="90.0" stroke="#e0e0e0" stroke-width="1"/><line x1="60" y1="40.0" x2="770" y2="40.0" stroke="#e0e0e0" stroke-width="1"/>
  <text x="50" y="340.0" text-anchor="end" dominant-baseline="middle" fill="#666" font-size="12">23°C</text><text x="50" y="290.0" text-anchor="end" dominant-baseline="middle" fill="#666" font-size="12">24°C</text><text x="50" y="240.0" text-anchor="end" dominant-baseline="middle" fill="#666" font-size="12">25°C</text><text x="50" y="190.0" text-anchor="end" dominant-baseline="middle" fill="#666" font-size="12">26°C</text><text x="50" y="140.0" text-anchor="end" dominant-baseline="middle" fill="#666" font-size="12">27°C</text><text x="50" y="90.0" text-anchor="end" dominant-baseline="middle" fill="#666" font-size="12">28°C</text><text x="50" y="40.0" text-anchor="end" dominant-baseline="middle" fill="#666" font-size="12">29°C</text>
  <text x="60.0" y="360" text-anchor="middle" fill="#666" font-size="11">10:58</text><text x="107.3" y="360" text-anchor="middle" fill="#666" font-size="11">12:01</text><text x="154.7" y="360" text-anchor="middle" fill="#666" font-size="11">12:56</text><text x="202.0" y="360" text-anchor="middle" fill="#666" font-size="11">13:35</text><text x="249.3" y="360" text-anchor="middle" fill="#666" font-size="11">14:08</text><text x="296.7" y="360" text-anchor="middle" fill="#666" font-size="11">14:44</text><text x="344.0" y="360" text-anchor="middle" fill="#666" font-size="11">15:13</text><text x="391.3" y="360" text-anchor="middle" fill="#666" font-size="11">15:49</text><text x="438.7" y="360" text-anchor="middle" fill="#666" font-size="11">16:17</text><text x="486.0" y="360" text-anchor="middle" fill="#666" font-size="11">16:44</text><text x="533.3" y="360" text-anchor="middle" fill="#666" font-size="11">17:12</text><text x="580.7" y="360" text-anchor="middle" fill="#666" font-size="11">17:41</text><text x="628.0" y="360" text-anchor="middle" fill="#666" font-size="11">18:07</text><text x="675.3" y="360" text-anchor="middle" fill="#666" font-size="11">18:33</text><text x="722.7" y="360" text-anchor="middle" fill="#666" font-size="11">18:56</text><text x="770.0" y="360" text-anchor="middle" fill="#666" font-size="11">19:21</text>
  <line x1="60" y1="40" x2="60" y2="340" stroke="#ccc" stroke-width="1"/>
  <line x1="60" y1="340" x2="770" y2="340" stroke="#ccc" stroke-width="1"/>
  <polyline points="60.0,240.0 107.3,240.0 154.7,240.0 202.0,240.0 249.3,240.0 296.7,240.0 344.0,190.0 391.3,190.0 438.7,190.0 486.0,190.0 533.3,140.0 580.7,140.0 628.0,140.0 675.3,140.0 722.7,140.0 770.0,140.0" fill="none" stroke="#e74c3c" stroke-width="2"/>
  <circle cx="533.3" cy="140.0" r="4" fill="#e74c3c"/>
  <text x="533.3" y="130.0" text-anchor="middle" fill="#e74c3c" font-size="13" font-weight="bold">27°C</text>
  <text x="778.0" y="140.0" fill="#e74c3c" font-size="13" font-weight="bold" dominant-baseline="middle">27°C</text>
</svg>